/* XPM */
static char * katomic_xpm[] = {
"32 32 4 1",
" 	c None",
".	c #0000FFFFFFFF",
"X	c #FFFFFFFFFFFF",
"o	c #FFFF00000000",
"          ...                   ",
"          ...                   ",
"          ...                   ",
"           XX                   ",
"           XX                   ",
"           XX                   ",
"           XX                   ",
"           XX                   ",
"           XX                   ",
"            XX                  ",
"            XX                  ",
"           ooooo                ",
"          ooooooo               ",
"         ooooooooo          ... ",
"         oooooooooXXXXXXXXXX... ",
"         oooooooooXXXXXXXXXX... ",
"         ooooooooo              ",
"         ooooooooo              ",
"         Xooooooo               ",
"        XXXoooooX               ",
"       XXX     XX               ",
"      XXX       XX              ",
"     XXX        XX              ",
"    XXX          XX             ",
"  ...X           XX             ",
"  ...             XX            ",
"  ...             ...           ",
"                  ...           ",
"                  ...           ",
"                                ",
"                                ",
"                                "};
